<?xml version="1.0" standalone="no"?>
<!DOCTYPE svg PUBLIC "-//W3C//DTD SVG 20010904//EN"
 "http://www.w3.org/TR/2001/REC-SVG-20010904/DTD/svg10.dtd">
<svg version="1.0" xmlns="http://www.w3.org/2000/svg"
 width="2041.000000pt" height="1640.000000pt" viewBox="0 0 2041.000000 1640.000000"
 preserveAspectRatio="xMidYMid meet">

<g transform="translate(0.000000,1640.000000) scale(0.100000,-0.100000)"
fill="#000000" stroke="none">
<path d="M7430 11080 l0 -2780 1255 0 1255 0 0 735 0 736 -572 712 c-314 392
-589 733 -611 760 l-39 47 304 0 303 -1 410 -521 c226 -286 424 -535 440 -554
l30 -33 435 554 435 554 309 0 c245 1 306 -2 299 -11 -6 -7 -283 -349 -617
-760 l-606 -747 0 -736 0 -735 1260 0 1260 0 0 2780 0 2780 -1300 0 -1300 0 0
-835 0 -835 -175 0 -175 0 0 835 0 835 -1300 0 -1300 0 0 -2780z m2385 1037
c210 -367 385 -670 387 -672 2 -3 177 299 388 670 l383 675 214 0 c117 0 213
-2 213 -4 0 -8 -1182 -2011 -1194 -2023 -9 -10 -144 212 -609 1001 -328 558
-597 1017 -597 1021 0 3 97 4 216 3 l216 -3 383 -668z"/>
<path d="M8965 7086 c-22 -33 -87 -369 -83 -430 3 -46 5 -51 26 -51 19 0 27
11 47 58 67 165 109 182 462 192 114 3 252 8 306 11 l98 5 -4 -1033 c-4 -1066
-6 -1116 -46 -1183 -23 -40 -54 -53 -142 -61 -84 -8 -103 -17 -89 -44 9 -16
43 -17 528 -18 285 0 524 3 531 8 7 4 11 16 9 26 -3 16 -19 20 -127 30 -133
13 -160 24 -193 80 -36 61 -40 166 -45 1191 l-5 1002 153 -4 c434 -14 491 -21
577 -71 52 -31 79 -73 87 -134 11 -84 14 -90 39 -90 19 0 26 7 30 28 11 56 17
457 7 471 -8 13 -18 13 -73 1 -50 -11 -231 -15 -888 -18 -867 -3 -1030 2
-1133 37 l-57 20 -15 -23z"/>
<path d="M14320 7099 c-224 -16 -405 -61 -575 -143 -342 -166 -557 -430 -657
-806 -26 -98 -31 -139 -35 -275 -3 -97 -1 -196 6 -248 82 -612 516 -1021 1191
-1122 369 -55 929 -7 1018 88 13 13 30 57 41 102 30 121 63 345 59 400 -3 46
-5 50 -28 50 -21 0 -27 -7 -38 -45 -45 -155 -144 -284 -264 -344 -112 -57
-195 -71 -413 -71 -217 0 -291 14 -443 85 -332 156 -552 441 -634 823 -28 132
-30 418 -4 571 55 323 212 559 453 680 322 162 917 104 1130 -110 73 -73 120
-172 132 -280 5 -45 12 -87 15 -93 13 -20 46 -12 56 14 5 13 14 143 20 287 5
145 13 274 16 288 10 45 -12 58 -136 80 -236 42 -380 60 -540 70 -181 11 -215
11 -370 -1z"/>
<path d="M12785 7071 c-44 -14 -134 -16 -780 -16 -401 0 -736 -4 -742 -8 -15
-10 -16 -17 -4 -36 7 -10 40 -17 109 -21 163 -12 199 -44 214 -191 14 -137 4
-1967 -11 -2043 -25 -126 -53 -152 -176 -163 -82 -6 -107 -21 -84 -49 12 -15
46 -16 314 -13 165 2 505 0 755 -5 451 -9 455 -8 481 12 32 26 44 67 64 217
21 164 23 261 7 277 -23 23 -46 -5 -63 -78 -18 -79 -46 -139 -81 -171 -66 -62
-218 -89 -438 -79 -193 8 -268 35 -307 109 -25 50 -33 214 -26 610 l6 367 227
0 c382 0 431 -22 451 -199 8 -69 20 -95 43 -88 20 6 25 38 41 252 9 121 19
238 22 261 7 58 -16 64 -65 19 -65 -58 -70 -59 -410 -63 l-312 -4 2 454 3 453
220 -3 c361 -5 438 -24 481 -116 13 -28 24 -69 24 -91 0 -63 9 -85 35 -85 13
0 26 8 30 18 7 19 38 359 39 436 1 27 -3 50 -9 51 -5 1 -32 -5 -60 -14z"/>
<path d="M2105 7047 c-18 -10 -20 -33 -3 -43 6 -4 49 -11 96 -15 98 -9 126
-24 157 -85 20 -38 20 -62 23 -1004 3 -1018 -1 -1168 -38 -1240 -23 -45 -51
-57 -160 -68 -62 -6 -75 -10 -78 -26 -2 -10 1 -22 8 -26 16 -10 1033 -11 1049
0 7 4 11 16 9 26 -3 16 -19 20 -124 30 -67 6 -134 18 -149 25 -41 20 -64 57
-76 119 -14 76 -24 1787 -11 1991 7 110 15 165 27 188 21 41 83 70 150 71 28
0 60 3 72 6 26 7 38 33 23 48 -13 13 -952 16 -975 3z"/>
<path d="M3215 7048 c-20 -12 -19 -35 3 -46 9 -5 51 -12 92 -14 135 -9 217
-64 280 -188 16 -32 232 -551 480 -1152 248 -601 459 -1106 469 -1123 24 -42
64 -54 92 -29 28 24 52 77 339 734 130 300 308 703 395 895 86 193 179 404
207 470 90 216 159 335 192 335 18 0 134 -124 188 -200 135 -193 590 -949 628
-1043 48 -122 53 -173 47 -575 -5 -387 -8 -418 -53 -471 -27 -32 -49 -39 -152
-49 -54 -6 -67 -10 -70 -26 -2 -10 1 -22 8 -26 16 -10 1033 -11 1049 0 7 4 11
16 9 26 -3 17 -19 21 -123 31 -66 6 -123 12 -127 12 -4 1 -23 14 -41 31 -59
52 -62 75 -62 550 0 419 0 426 23 490 42 116 351 652 558 967 159 242 253 322
400 342 37 6 74 17 83 26 37 37 3 41 -393 40 -317 -1 -379 -3 -386 -15 -12
-20 5 -38 45 -46 18 -3 43 -15 55 -26 20 -19 22 -28 18 -87 -4 -44 -15 -88
-35 -131 -29 -64 -488 -897 -502 -913 -7 -7 -345 570 -514 878 -116 210 -120
252 -30 278 36 10 49 19 51 35 2 12 0 22 -5 23 -47 6 -1232 3 -1245 -3 -10 -5
-18 -17 -18 -27 0 -21 35 -31 107 -31 24 0 59 -6 78 -14 47 -20 53 -52 27
-142 -40 -136 -667 -1684 -682 -1684 -7 0 -587 1523 -627 1648 -45 142 -20
192 97 192 28 0 60 5 71 10 22 12 25 35 7 47 -18 10 -1013 11 -1033 1z"/>
<path d="M15472 7052 c-15 -5 -16 -39 0 -48 7 -4 53 -11 104 -15 114 -8 163
-32 191 -93 17 -38 18 -91 18 -1056 0 -1072 -2 -1116 -46 -1189 -23 -39 -48
-49 -147 -58 -64 -7 -77 -11 -80 -27 -2 -10 1 -22 8 -26 7 -4 243 -8 526 -8
452 0 516 1 530 15 27 27 0 37 -128 50 -134 12 -160 24 -190 84 -30 59 -38
201 -38 672 l0 457 653 -2 652 -3 -1 -460 c-1 -579 -14 -694 -84 -730 -15 -8
-65 -17 -110 -21 -84 -7 -105 -19 -81 -48 17 -20 1044 -21 1061 -1 26 31 5 40
-116 51 -132 13 -175 28 -199 73 -38 74 -40 144 -40 1181 l0 1005 22 47 c29
63 55 77 159 88 79 8 103 18 104 42 0 4 -6 10 -12 15 -18 11 -999 12 -1020 1
-21 -10 -24 -33 -6 -44 7 -4 56 -11 109 -15 110 -7 152 -25 182 -77 28 -48 38
-218 35 -592 l-3 -315 -653 -3 -653 -2 3 437 c3 405 4 441 22 476 24 49 60 67
156 76 42 5 83 11 89 15 15 9 14 33 -1 43 -13 7 -993 13 -1016 5z"/>
<path d="M2127 3763 c-4 -3 -7 -26 -7 -50 l0 -43 8085 0 8085 0 0 50 0 50
-8078 0 c-4443 0 -8082 -3 -8085 -7z"/>
<path d="M4435 3078 c-3 -7 -36 -217 -74 -466 -74 -486 -74 -488 -134 -494
-17 -2 -32 -9 -35 -15 -3 -10 33 -13 158 -13 125 0 161 3 158 13 -3 6 -22 14
-44 17 -52 7 -64 16 -64 48 0 14 17 145 37 291 36 259 37 264 52 230 56 -126
272 -559 289 -579 l22 -25 17 23 c10 13 83 158 163 323 79 165 146 296 148
291 1 -5 20 -136 42 -293 34 -253 37 -286 24 -300 -13 -14 -13 -19 -2 -26 7
-4 152 -9 322 -11 250 -3 307 -1 304 10 -3 7 -22 15 -44 18 -53 8 -64 16 -64
50 0 16 16 142 35 281 19 139 35 258 35 264 0 5 35 -64 78 -155 133 -281 233
-470 249 -470 9 0 72 119 171 321 86 176 158 316 160 311 1 -5 20 -134 41
-288 34 -249 37 -282 24 -302 -8 -13 -12 -27 -8 -30 11 -11 320 -8 323 3 1 6
-20 13 -48 16 -61 8 -77 20 -89 68 -6 20 -37 223 -71 451 -33 228 -63 423 -66
433 -15 49 -44 1 -214 -355 -96 -202 -178 -369 -181 -372 -3 -4 -87 162 -186
366 -143 297 -184 373 -199 373 -23 0 -18 26 -99 -504 -48 -317 -69 -428 -81
-442 -13 -15 -31 -19 -80 -19 -79 0 -111 12 -125 47 -6 16 -40 219 -75 453
-35 234 -66 435 -69 448 -14 57 -40 14 -213 -348 -95 -201 -177 -368 -181
-372 -4 -5 -88 160 -187 364 -173 357 -203 408 -219 366z"/>
<path d="M2565 3073 c-323 -43 -513 -342 -415 -655 49 -158 178 -274 361 -324
82 -23 327 -26 408 -5 44 11 55 19 66 45 16 38 37 174 30 187 -11 17 -23 9
-30 -18 -11 -48 -53 -102 -98 -125 -36 -19 -57 -23 -152 -23 -103 0 -114 2
-177 32 -123 58 -211 174 -238 311 -17 87 -8 232 19 303 27 72 89 142 155 177
47 24 61 27 166 27 123 0 177 -11 230 -47 46 -32 69 -66 78 -117 7 -45 25 -64
35 -37 3 8 7 63 8 122 1 82 -2 109 -12 114 -46 25 -331 47 -434 33z"/>
<path d="M3510 3064 c-277 -60 -442 -329 -375 -612 40 -170 152 -297 311 -353
83 -29 237 -36 328 -15 245 58 396 255 396 516 0 141 -43 254 -129 340 -115
115 -335 167 -531 124z m242 -81 c58 -26 131 -93 165 -150 107 -184 90 -487
-36 -613 -79 -79 -179 -99 -305 -60 -188 58 -305 301 -267 550 23 143 87 240
187 280 65 27 188 23 256 -7z"/>
<path d="M8006 3008 c-3 -40 -7 -245 -10 -456 -4 -435 -4 -432 -76 -432 -29 0
-40 -4 -40 -15 0 -13 24 -15 175 -13 108 2 175 7 175 13 1 6 -20 12 -45 15
-25 3 -49 10 -55 16 -19 19 -28 122 -35 389 l-6 270 133 -139 c252 -264 576
-586 591 -586 24 0 27 31 28 285 2 377 12 642 26 656 7 7 29 15 49 18 21 3 39
12 42 19 3 9 -36 12 -173 12 -137 0 -176 -3 -173 -12 3 -7 26 -15 51 -18 26
-3 53 -12 59 -18 14 -14 31 -415 26 -580 l-3 -82 -340 351 c-187 193 -346 357
-353 365 -29 30 -40 16 -46 -58z"/>
<path d="M9575 3058 c-27 -121 -33 -178 -16 -178 5 0 14 13 21 29 25 61 39 66
192 69 l139 4 -3 -409 c-2 -304 -6 -414 -16 -430 -8 -15 -24 -23 -49 -25 -20
-2 -38 -9 -41 -15 -3 -10 42 -13 203 -13 161 0 206 3 203 13 -3 6 -25 13 -51
15 -84 5 -81 -6 -86 459 l-3 403 111 0 c132 0 188 -17 197 -59 9 -43 13 -51
22 -51 10 0 27 178 19 186 -3 3 -184 6 -403 7 -220 1 -407 6 -416 10 -13 7
-18 3 -23 -15z"/>
<path d="M12545 3070 c-262 -37 -435 -228 -435 -481 0 -159 39 -260 139 -359
116 -115 248 -160 468 -160 115 0 224 17 245 38 13 13 37 132 38 185 0 49 -19
45 -37 -8 -34 -98 -119 -140 -268 -133 -79 3 -101 8 -157 36 -172 84 -267 282
-239 494 20 147 87 251 196 300 42 19 67 22 155 22 192 -1 286 -57 306 -183 6
-40 21 -54 28 -28 3 6 7 64 10 128 l6 117 -88 16 c-108 20 -287 28 -367 16z"/>
<path d="M13530 3070 c-179 -28 -328 -146 -391 -307 -27 -70 -37 -232 -20
-314 30 -137 133 -271 253 -327 81 -38 148 -52 256 -52 291 0 496 183 527 471
22 201 -74 392 -237 475 -97 49 -268 73 -388 54z m211 -92 c105 -48 179 -148
215 -288 20 -79 15 -258 -10 -337 -24 -74 -74 -143 -130 -178 -46 -28 -56 -30
-145 -30 -85 0 -103 3 -152 28 -105 51 -178 152 -215 297 -23 92 -15 262 16
345 31 81 98 150 170 176 75 27 176 21 251 -13z"/>
<path d="M17000 3071 c-87 -13 -160 -37 -225 -76 -76 -46 -98 -66 -146 -139
-132 -198 -105 -487 59 -637 103 -94 226 -138 404 -146 167 -8 330 21 366 65
8 11 12 66 12 191 0 97 4 182 9 189 5 8 23 17 41 21 19 3 35 12 38 19 3 10
-38 12 -187 10 -117 -2 -192 -7 -194 -13 -1 -5 20 -13 47 -16 73 -8 76 -16 76
-205 0 -197 2 -194 -126 -194 -208 0 -366 115 -425 311 -18 58 -20 89 -18 192
4 109 7 128 32 179 34 69 110 140 173 162 199 68 458 -16 480 -154 9 -56 34
-54 34 3 0 23 3 78 6 122 l7 81 -109 17 c-134 21 -281 28 -354 18z"/>
<path d="M16071 3060 c-223 -4 -295 -8 -299 -17 -2 -9 9 -13 38 -13 30 0 47
-6 66 -25 l25 -25 -3 -408 c-2 -300 -6 -413 -15 -429 -8 -14 -27 -24 -53 -28
-72 -12 -42 -25 58 -25 53 0 188 -3 298 -7 l202 -6 12 23 c17 32 26 180 11
180 -6 0 -14 -8 -17 -17 -30 -93 -48 -103 -179 -103 -88 0 -98 2 -120 25 -25
24 -25 26 -25 205 l0 180 90 0 c122 0 157 -15 166 -70 12 -72 29 -39 36 70 5
57 6 106 3 108 -3 3 -14 -3 -26 -14 -18 -16 -40 -20 -145 -22 l-124 -4 2 174
3 173 95 -3 c136 -5 158 -13 172 -68 12 -43 25 -56 33 -31 2 6 6 51 10 100 5
68 3 87 -7 85 -7 -2 -145 -5 -307 -8z"/>
<path d="M17938 3063 c-256 -3 -298 -5 -298 -18 0 -11 11 -15 39 -15 23 0 48
-8 62 -19 l24 -19 -1 -409 c0 -281 -4 -416 -12 -435 -9 -22 -20 -29 -52 -34
-22 -4 -40 -10 -40 -14 0 -12 566 -23 588 -11 20 11 26 31 38 134 5 49 4 57
-10 57 -9 0 -16 -7 -16 -16 0 -30 -31 -81 -56 -93 -14 -6 -69 -11 -123 -11
-150 0 -145 -7 -149 224 l-3 186 95 0 c131 0 166 -15 166 -72 0 -24 15 -46 25
-37 2 2 7 54 11 114 l7 110 -23 -20 c-20 -18 -36 -20 -149 -20 l-126 0 -3 164
c-1 91 1 168 5 172 5 4 57 5 116 2 122 -7 144 -17 156 -73 12 -59 25 -39 37
55 11 87 10 108 -4 103 -4 -2 -141 -4 -304 -5z"/>
<path d="M6802 3048 c3 -7 26 -16 53 -19 76 -9 75 -5 75 -313 0 -149 5 -300
11 -336 22 -138 84 -225 198 -279 51 -23 67 -26 181 -26 119 0 128 1 191 31
109 52 173 133 198 252 6 30 11 158 12 300 1 265 7 349 30 363 8 5 29 9 47 9
22 0 32 5 32 15 0 13 -26 15 -176 15 -136 0 -175 -3 -172 -12 3 -7 24 -16 47
-19 77 -10 76 -6 79 -301 5 -389 -14 -482 -109 -540 -149 -93 -326 -32 -376
129 -16 50 -18 99 -18 370 0 229 3 315 12 324 7 7 29 15 49 18 21 3 39 12 42
19 3 9 -42 12 -203 12 -161 0 -206 -3 -203 -12z"/>
<path d="M9075 3050 c-3 -5 6 -12 20 -15 14 -3 36 -7 50 -10 16 -4 27 -15 32
-33 14 -48 9 -824 -5 -849 -8 -15 -24 -23 -49 -25 -20 -2 -38 -9 -41 -15 -3
-10 42 -13 203 -13 161 0 206 3 203 13 -3 6 -28 14 -56 17 -28 3 -57 11 -64
18 -10 10 -14 108 -16 429 -3 467 -4 459 65 465 20 2 38 9 41 16 5 15 -373 18
-383 2z"/>
<path d="M10492 3048 c3 -7 20 -16 39 -19 23 -5 49 -23 79 -57 44 -48 258
-390 279 -445 13 -34 14 -366 2 -386 -5 -8 -26 -17 -47 -20 -20 -3 -39 -12
-42 -19 -3 -9 42 -12 203 -12 161 0 206 3 203 13 -3 6 -28 14 -57 17 -30 3
-56 12 -61 20 -17 27 -22 96 -18 241 4 166 -6 140 146 393 104 172 160 241
207 251 48 11 55 14 55 25 0 6 -54 10 -150 10 -148 0 -182 -8 -125 -30 29 -11
31 -26 10 -78 -23 -54 -189 -352 -196 -352 -4 0 -49 75 -102 168 -142 250
-144 255 -107 265 11 3 20 10 20 16 0 8 -54 11 -171 11 -130 0 -170 -3 -167
-12z"/>
<path d="M14285 3050 c-7 -11 3 -16 57 -25 22 -3 42 -14 48 -25 14 -26 14
-807 -1 -848 -9 -25 -17 -32 -50 -37 -21 -4 -39 -10 -39 -14 0 -5 138 -11 306
-15 259 -7 309 -6 321 7 13 13 32 111 33 170 0 43 -24 31 -40 -21 -22 -70 -55
-84 -194 -80 -98 3 -110 5 -126 26 -28 34 -32 96 -28 470 3 327 4 344 22 358
11 8 37 14 58 14 27 0 38 4 38 15 0 13 -29 15 -199 15 -123 0 -202 -4 -206
-10z"/>
<path d="M15037 3053 c-15 -14 -5 -21 40 -26 29 -3 52 -12 60 -23 11 -15 13
-98 11 -435 -3 -461 -1 -444 -69 -455 -22 -4 -39 -10 -39 -14 0 -9 599 -23
622 -15 20 8 33 52 43 143 9 79 -12 86 -38 11 -25 -70 -56 -82 -194 -77 -91 3
-106 6 -125 26 l-23 23 0 395 c0 380 1 396 19 410 11 8 37 14 58 14 27 0 38 4
38 15 0 13 -29 15 -198 15 -109 0 -202 -3 -205 -7z"/>
</g>
</svg>
